<svg xmlns="http://www.w3.org/2000/svg" height="40" width="40"><path d="M0 30v-2.333q0-1.709 1.792-2.75 1.791-1.042 4.625-1.042.5 0 .979.021t.937.104q-.416.75-.625 1.562-.208.813-.208 1.73V30Zm10 0v-2.708q0-2.709 2.771-4.375Q15.542 21.25 20 21.25q4.5 0 7.25 1.667Q30 24.583 30 27.292V30Zm22.5 0v-2.708q0-.917-.188-1.73-.187-.812-.604-1.562.459-.083.938-.104.479-.021.979-.021 2.875 0 4.625 1.042Q40 25.958 40 27.667V30ZM6.375 22.5q-1.25 0-2.146-.896-.896-.896-.896-2.146 0-1.291.896-2.187.896-.896 2.146-.896 1.292 0 2.187.896.896.896.896 2.187 0 1.25-.896 2.146-.895.896-2.187.896Zm27.208 0q-1.25 0-2.146-.896-.895-.896-.895-2.146 0-1.291.895-2.187.896-.896 2.188-.896 1.25 0 2.146.896.896.896.896 2.187 0 1.25-.896 2.146-.896.896-2.188.896ZM20 20q-2.083 0-3.542-1.458Q15 17.083 15 15q0-2.125 1.458-3.562Q17.917 10 20 10q2.125 0 3.562 1.438Q25 12.875 25 15q0 2.083-1.438 3.542Q22.125 20 20 20Z"/></svg>